<svg width="375" height="430" viewBox="0 0 375 430" fill="none" xmlns="http://www.w3.org/2000/svg">
<rect x="-293" y="-530" width="960" height="960" rx="480" fill="#4B3425"/>
<g opacity="0.32">
<path d="M402.377 69.3294C398.77 62.745 393.713 57.2024 387.743 52.785C381.566 48.2426 374.146 45.6589 366.933 43.3669C363.492 42.2417 360.01 41.1998 356.61 39.9496C355.781 39.6579 354.911 39.3245 354.081 38.9911C352.838 38.4911 353.543 38.7411 353.791 38.8661C353.377 38.6994 352.962 38.4911 352.589 38.3244C350.765 37.4492 348.982 36.4907 347.283 35.4072C346.744 35.0738 346.205 34.6988 345.707 34.3237C345.749 34.3237 345.044 33.782 344.754 33.5319C343.635 32.5317 342.557 31.4482 341.562 30.3231C341.313 30.0313 340.401 28.8228 340.691 29.2812C340.36 28.8228 340.028 28.3227 339.696 27.8643C338.826 26.5308 338.038 25.1139 337.334 23.697C337.085 23.2386 336.463 21.53 336.919 22.8218C336.629 21.9884 336.297 21.1549 336.007 20.2798C335.51 18.7378 335.095 17.1959 334.805 15.6123C334.722 15.1122 334.432 12.5285 334.556 14.1954C334.473 13.4037 334.39 12.5702 334.349 11.7784C334.266 10.1531 334.266 8.56952 334.349 6.94426C334.39 6.27748 334.473 5.6107 334.515 4.9856C334.473 5.69405 334.763 3.56872 334.846 3.15198C335.178 1.56839 335.592 0.0264587 336.131 -1.47379C336.256 -1.80717 336.38 -2.14055 336.504 -2.47393C336.504 -2.51561 336.546 -2.5573 336.546 -2.59897C336.919 -3.30742 337.209 -4.05752 337.624 -4.76597C338.038 -5.55777 338.494 -6.30789 338.992 -7.05801C339.199 -7.34973 339.365 -7.64146 339.572 -7.93317C339.779 -8.22489 340.774 -9.47507 339.821 -8.30822C341.977 -11.017 342.681 -15.101 339.821 -17.7264C337.416 -19.9351 332.732 -20.6436 330.452 -17.7264C322.037 -7.05803 319.342 6.44416 322.119 19.6963C324.938 33.0735 333.81 44.242 346.164 49.9929C353.169 53.2435 360.631 55.2021 367.886 57.7442C368.757 58.0359 369.586 58.3693 370.456 58.661C370.871 58.8277 371.285 58.9944 371.7 59.1611C371.783 59.2028 372.156 59.3278 372.28 59.4111C373.814 60.0779 375.348 60.828 376.84 61.6615C378.291 62.4533 379.659 63.3701 380.986 64.3286C381.027 64.3703 381.11 64.4119 381.152 64.4536C381.442 64.7037 381.732 64.912 381.981 65.162C382.686 65.7455 383.349 66.3706 384.012 66.9957C385.09 68.0792 386.126 69.1627 387.121 70.3712C387.287 70.5796 387.453 70.788 387.66 71.038C387.743 71.1631 387.909 71.3714 387.95 71.4548C388.531 72.2882 389.111 73.1217 389.65 73.9968C390.438 75.2887 391.184 76.6223 391.847 77.9975C392.013 78.3726 392.179 78.7476 392.386 79.1227C392.428 79.206 392.552 79.5394 392.676 79.7895C392.759 79.9978 392.884 80.2895 392.884 80.3729C393.049 80.8313 393.215 81.3313 393.381 81.8314C393.92 83.3733 394.334 84.957 394.708 86.5406C394.873 87.3323 395.039 88.1242 395.164 88.9576C395.164 89.0826 395.205 89.291 395.246 89.4577C395.288 89.7077 395.288 89.9578 395.329 90.2078C395.454 91.8331 395.537 93.4583 395.495 95.0836C395.454 95.9171 395.412 96.7089 395.371 97.5423C395.329 97.7924 395.329 98.0424 395.288 98.3342C395.288 98.4592 395.205 98.7925 395.164 99.0842C394.832 100.96 394.376 102.835 393.796 104.627C393.547 105.377 393.257 106.127 393.008 106.877C392.966 106.961 392.966 107.044 392.925 107.086C392.718 107.586 392.469 108.086 392.22 108.586C391.433 110.211 390.562 111.795 389.567 113.295C389.07 114.045 388.572 114.795 388.033 115.545C387.992 115.587 387.992 115.629 387.95 115.67C387.66 116.045 387.329 116.42 386.997 116.795C385.836 118.171 384.592 119.463 383.224 120.713C382.561 121.338 381.898 121.921 381.193 122.463C381.4 122.296 380.198 123.213 379.908 123.422C378.333 124.505 376.716 125.505 375.016 126.38C374.768 126.505 373.275 127.172 373.275 127.214C372.446 127.547 371.617 127.839 370.788 128.131C367.513 129.214 365.026 132.798 366.145 136.34C367.223 139.633 370.788 142.175 374.312 141.008C388.531 136.257 399.599 125.38 405.32 111.545C410.958 97.7924 409.383 82.1231 402.377 69.3294Z" fill="#1F160F"/>
<path d="M8.48491 257.652C-13.8822 239.433 -17.0939 206.754 1.14391 184.55C1.25861 184.436 1.25861 184.436 1.37331 184.322L82.2392 250.137C82.1245 250.251 82.1245 250.251 82.0098 250.365C63.7719 272.569 30.8521 275.757 8.48491 257.652Z" fill="#1F160F"/>
<path d="M364.27 398.624C367.102 393.668 365.332 387.118 360.375 384.285C355.419 381.453 348.869 383.223 346.036 388.18C343.204 393.137 344.974 399.686 349.931 402.519C354.888 405.351 361.437 403.581 364.27 398.624Z" fill="#926247"/>
<path d="M281.604 65.8157C284.437 60.859 282.666 54.3092 277.71 51.4768C272.753 48.6444 266.203 50.4146 263.371 55.3713C260.538 60.328 262.309 66.8779 267.265 69.7103C272.222 72.5427 278.772 70.7724 281.604 65.8157Z" fill="#926247"/>
<path d="M54.059 367.183C60.9029 370.268 66.8205 374.882 71.6869 380.491C76.694 386.298 79.8446 393.496 82.6884 400.51C84.0767 403.853 85.385 407.244 86.8947 410.536C87.2498 411.34 87.6496 412.183 88.0462 412.983C88.6411 414.185 88.3372 413.501 88.1933 413.263C88.3916 413.663 88.6315 414.061 88.8265 414.42C89.8403 416.17 90.934 417.873 92.1459 419.484C92.52 419.996 92.9356 420.504 93.3481 420.971C93.3449 420.929 93.9396 421.59 94.2114 421.86C95.2952 422.899 96.4589 423.889 97.6578 424.794C97.9679 425.019 99.2434 425.835 98.7639 425.581C99.2466 425.876 99.7709 426.168 100.254 426.463C101.651 427.228 103.124 427.904 104.591 428.497C105.068 428.709 106.819 429.197 105.496 428.842C106.349 429.067 107.206 429.333 108.101 429.555C109.677 429.931 111.246 430.225 112.848 430.392C113.353 430.436 115.951 430.525 114.28 430.53C115.075 430.551 115.913 430.569 116.705 430.549C118.332 430.506 119.911 430.384 121.525 430.175C122.187 430.082 122.845 429.948 123.465 429.858C122.762 429.954 124.858 429.5 125.267 429.385C126.82 428.932 128.326 428.399 129.78 427.746C130.102 427.596 130.425 427.446 130.748 427.297C130.789 427.293 130.828 427.249 130.869 427.245C131.547 426.819 132.272 426.471 132.946 426.003C133.704 425.528 134.416 425.016 135.126 424.462C135.4 424.232 135.678 424.045 135.953 423.815C136.228 423.586 137.397 422.497 136.308 423.538C138.842 421.179 142.859 420.16 145.698 422.809C148.086 425.035 149.155 429.651 146.423 432.15C136.439 441.366 123.186 445.098 109.758 443.355C96.203 441.581 84.381 433.601 77.6906 421.73C73.9073 414.996 71.3767 407.709 68.2804 400.673C67.9221 399.827 67.5256 399.026 67.1673 398.181C66.969 397.781 66.7707 397.38 66.5724 396.98C66.5244 396.9 66.3709 396.538 66.2782 396.421C65.4946 394.943 64.6279 393.472 63.6814 392.048C62.7796 390.663 61.7597 389.37 60.7013 388.122C60.6566 388.084 60.6086 388.004 60.5638 387.966C60.292 387.696 60.0618 387.423 59.7933 387.195C59.157 386.537 58.4824 385.924 57.8079 385.311C56.6441 384.321 55.4836 383.371 54.2017 382.473C53.9811 382.324 53.7605 382.175 53.4951 381.987C53.3641 381.914 53.1435 381.765 53.0572 381.73C52.1813 381.216 51.3054 380.702 50.3911 380.233C49.0421 379.547 47.6548 378.907 46.2323 378.352C45.8456 378.216 45.4588 378.079 45.0688 377.902C44.9825 377.867 44.6404 377.769 44.3815 377.664C44.1674 377.597 43.8669 377.496 43.7838 377.503C43.314 377.373 42.8025 377.246 42.2911 377.12C40.7121 376.702 39.1011 376.411 37.4934 376.162C36.6912 376.058 35.8889 375.954 35.0483 375.894C34.9236 375.904 34.7127 375.879 34.5433 375.85C34.2908 375.828 34.0415 375.848 33.789 375.826C32.159 375.828 30.5322 375.871 28.915 376.038C28.0873 376.144 27.301 376.246 26.4733 376.352C26.2272 376.413 25.9779 376.432 25.6903 376.496C25.5656 376.506 25.2397 376.614 24.9521 376.678C23.1081 377.154 21.2737 377.754 19.5321 378.472C18.8035 378.778 18.0781 379.125 17.3495 379.431C17.2696 379.479 17.1865 379.485 17.1481 379.53C16.6656 379.775 16.1863 380.062 15.707 380.349C14.1476 381.26 12.6362 382.25 11.2175 383.359C10.5082 383.913 9.79881 384.467 9.09268 385.062C9.05434 385.107 9.01278 385.11 8.97445 385.154C8.62298 385.473 8.27475 385.832 7.92649 386.192C6.64529 387.456 5.45359 388.796 4.31309 390.257C3.74123 390.966 3.21094 391.673 2.72538 392.417C2.87553 392.198 2.05455 393.467 1.86927 393.773C0.911022 395.427 0.0390772 397.117 -0.701822 398.879C-0.8072 399.137 -1.3564 400.676 -1.39795 400.679C-1.66613 401.532 -1.89279 402.381 -2.11941 403.23C-2.94605 406.579 -6.32657 409.337 -9.94485 408.495C-13.3106 407.675 -16.1212 404.318 -15.2307 400.714C-11.5953 386.17 -1.60842 374.292 11.7426 367.517C25.0169 360.831 40.7611 361.188 54.059 367.183Z" fill="#1F160F"/>
<path d="M218.156 235.136C246.566 223.147 279.031 236.492 290.856 264.839C290.906 265.004 290.906 265.004 290.956 265.17L188.29 308.538C188.24 308.373 188.24 308.373 188.19 308.208C176.365 279.861 189.852 247.181 218.156 235.136Z" fill="#1F160F"/>
<path d="M165.825 49.6897C161.683 55.8093 155.777 58.0157 151.617 59.4353C147.457 60.8549 145.961 61.5293 144.887 64.1395C143.022 68.3215 138.17 70.2046 134.005 68.2851C129.84 66.3657 127.927 61.4564 129.792 57.2744C133.861 47.9981 141.252 45.426 146.036 43.7254C150.196 42.3058 151.692 41.6315 152.891 38.9651C154.089 36.2986 153.531 34.7276 151.835 30.632C149.797 25.779 146.803 18.4713 150.873 9.1951C154.942 -0.0811488 162.333 -2.65325 167.116 -4.35386C171.277 -5.77349 172.773 -6.44787 173.971 -9.11428C175.169 -11.7807 174.611 -13.3517 172.915 -17.4473C170.878 -22.3003 167.884 -29.6079 171.953 -38.8842C176.022 -48.1604 183.413 -50.7325 188.197 -52.4332C192.357 -53.8528 193.853 -54.5272 195.052 -57.1936C196.917 -61.3756 201.768 -63.2587 205.934 -61.3392C210.099 -59.4197 212.012 -54.5105 210.147 -50.3285C206.078 -41.0522 198.686 -38.4801 193.903 -36.7795C189.742 -35.3599 188.246 -34.6855 187.048 -32.0191C185.85 -29.3527 186.408 -27.7817 188.104 -23.6861C190.141 -18.833 193.135 -11.5254 189.066 -2.24917C184.997 7.02708 177.606 9.59918 172.822 11.2998C168.662 12.7194 167.166 13.3938 165.968 16.0602C164.769 18.7266 165.327 20.2976 167.024 24.3932C169.061 29.2463 172.055 36.5539 167.986 45.8302C167.262 47.2196 166.538 48.609 165.825 49.6897Z" fill="#926247"/>
<path d="M0.431186 28.2674C1.3292 27.7477 2.36789 27.4711 3.38398 27.532C5.36926 27.5729 7.20509 28.6737 8.2367 30.4563L52.2551 111.414C53.1581 113.162 53.1163 115.35 52.1158 117.01C51.0336 118.718 49.1559 119.805 47.1237 119.683L-45.5191 117.594C-47.5044 117.553 -49.3402 116.452 -50.3718 114.67C-51.2749 112.921 -51.2331 110.734 -50.2325 109.073L-1.65495 30.1237C-1.10778 29.3744 -0.38519 28.7399 0.431186 28.2674ZM37.6861 108.272L3.01294 44.4038L-35.3957 106.652L37.6861 108.272Z" fill="#926247"/>
<path d="M349.393 265.574C348.427 265.016 347.612 264.198 347.122 263.222C346.093 261.356 346.129 259.064 347.23 257.156L398.78 173.14C399.92 171.369 401.974 170.243 404.055 170.288C406.224 170.384 408.243 171.55 409.222 173.502L457.086 260.686C458.116 262.552 458.08 264.844 456.979 266.752C455.839 268.522 453.785 269.649 451.704 269.603L352.239 266.523C351.249 266.414 350.271 266.08 349.393 265.574ZM403.694 188.349L362.997 254.58L441.478 257.109L403.694 188.349Z" fill="#926247"/>
</g>
</svg>
