<svg width="343" height="166" viewBox="16 510 343 166" fill="none" xmlns="http://www.w3.org/2000/svg">
<path d="M-48.466 721.935C0.0371794 751.181 66.0956 758.497 125.448 741.159C140.905 736.64 156.38 730.259 167.602 719.598C178.809 708.94 177.817 700.314 172.032 687.763C164.353 671.07 122.287 642.786 109.996 629.639C103.328 622.518 78.3762 602.134 84.8243 593.975C89.1438 588.53 95.7283 589.543 103.04 589.094C121.707 587.957 135.309 592.782 151.852 584.152C162.551 578.583 169.051 567.874 170.643 557.362C172.251 546.846 169.571 536.468 165.679 526.807C155.789 502.236 138.187 480.985 118.547 461.85C94.2279 438.157 65.297 416.635 29.4429 408.231C19.8906 405.99 8.2435 405.155 0.501132 411.351C-8.01193 418.161 -7.19323 429.507 -5.64037 438.979C-3.12415 454.353 -0.592337 469.724 1.92767 485.112C3.44703 494.397 4.39378 505.285 -3.45312 512.4C-10.0273 518.344 -20.339 519.189 -29.3085 518.437C-43.5377 517.253 -55.9642 511.328 -69.2373 507.728C-80.6058 504.63 -101.812 501.465 -111.26 511.893C-113.233 514.067 -114.234 516.751 -114.71 519.399C-117.003 532.031 -109.564 545.211 -103.257 555.659C-95.0821 569.215 -85.1703 581.898 -73.7644 593.426C-60.9625 606.361 -45.9678 618.256 -38.7032 634.336C-36.3161 639.629 -34.9605 646.06 -38.6864 651.165C-45.5999 660.641 -62.223 657.441 -73.2162 663.286C-86.4891 670.345 -86.0881 687.735 -78.2161 698.353C-70.3323 708.952 -62.2587 712.843 -48.466 721.935Z" fill="#F2F5EB"/>
<path fill-rule="evenodd" clip-rule="evenodd" d="M150.605 648.969C140.802 660.653 115.23 655.341 93.4959 637.105C71.7614 618.857 72.2304 603.114 82.0453 591.418C91.8481 579.734 107.268 576.53 129.015 594.766C150.737 613.015 160.408 637.285 150.605 648.969Z" fill="#7D944D"/>
<path d="M143.172 625.626C139.503 625.626 135.979 624.072 133.489 621.29L118.009 603.981C115.868 601.584 114.689 598.5 114.689 595.284V586.913C114.689 586.01 115.423 585.287 116.313 585.287C117.215 585.287 117.937 586.022 117.937 586.913V595.284C117.937 597.693 118.815 600.006 120.427 601.801L135.907 619.109C138.072 621.518 141.271 622.711 144.471 622.277L150.485 621.47C151.375 621.362 152.193 621.976 152.313 622.867C152.433 623.759 151.808 624.578 150.918 624.698L144.904 625.505C144.338 625.578 143.749 625.626 143.172 625.626Z" fill="white"/>
<path fill-rule="evenodd" clip-rule="evenodd" d="M34.9262 695.651C107.467 695.651 123.332 650.06 113.818 602.181C104.304 554.302 71.4311 510 34.9262 510C-1.57869 510 -34.8842 551.278 -43.9533 602.181C-53.0224 653.095 -37.6145 695.651 34.9262 695.651Z" fill="#9BB068"/>
<path fill-rule="evenodd" clip-rule="evenodd" d="M33.4949 536.103H51.7173C70.7095 536.103 86.1053 551.52 86.1053 570.539C86.1053 589.559 70.7095 604.976 51.7173 604.976H33.4949C14.5027 604.976 -0.893066 589.559 -0.893066 570.539C-0.893066 551.508 14.5027 536.103 33.4949 536.103Z" fill="#7D944D"/>
<path fill-rule="evenodd" clip-rule="evenodd" d="M37.7649 533.103H55.9873C74.9795 533.103 90.3753 548.52 90.3753 567.54C90.3753 586.559 74.9795 601.977 55.9873 601.977H37.7649C18.7728 601.977 3.37695 586.559 3.37695 567.54C3.37695 548.52 18.7728 533.103 37.7649 533.103Z" fill="#E5EAD7"/>
<path d="M22.4412 696C21.5391 696 20.8174 695.265 20.8174 694.374V676.27C20.8174 669.091 26.651 663.237 33.8317 663.237H58.9822C64.3587 663.237 68.7369 658.853 68.7369 653.469V648.53C68.7369 647.627 69.4706 646.904 70.3606 646.904C71.2627 646.904 71.9844 647.639 71.9844 648.53V653.469C71.9844 660.648 66.1508 666.502 58.9701 666.502H33.8317C28.4552 666.502 24.077 670.886 24.077 676.27V694.362C24.077 695.265 23.3433 696 22.4412 696Z" fill="#7D944D"/>
<path d="M70.3606 614.081C69.4585 614.081 68.7368 613.347 68.7368 612.455V611.323C68.7368 606.83 72.3813 603.181 76.8677 603.181H113C113.902 603.181 114.624 603.915 114.624 604.807C114.624 605.71 113.89 606.433 113 606.433H76.8677C74.1735 606.433 71.9844 608.625 71.9844 611.323V612.455C71.9844 613.359 71.2627 614.081 70.3606 614.081Z" fill="#7D944D"/>
<path fill-rule="evenodd" clip-rule="evenodd" d="M54.4281 613.527L75.8849 613.153C85.4433 612.985 93.3275 620.602 93.5025 630.169C93.5025 630.169 93.5025 630.169 93.5004 630.18C93.6635 639.745 86.0569 647.642 76.4986 647.81L55.0417 648.185C45.4834 648.353 37.5991 640.736 37.4241 631.169C37.4241 631.169 37.4241 631.169 37.4262 631.157C37.2652 621.58 44.8718 613.683 54.4281 613.527Z" fill="#7D944D"/>
<path fill-rule="evenodd" clip-rule="evenodd" d="M59.5412 613.134L80.5807 612.771C90.2498 612.599 98.238 620.32 98.4061 629.995L98.404 630.007C98.5699 639.695 90.8616 647.684 81.1827 647.843L60.1432 648.205C50.4741 648.378 42.4957 640.671 42.3158 630.993L42.3178 630.982C42.1519 621.294 49.8602 613.305 59.5412 613.134Z" fill="#E5EAD7"/>
<path d="M60.0517 639.293C55.6783 639.29 52.0705 635.766 51.9895 631.363C51.9049 626.909 55.4609 623.222 59.9102 623.141L60.0447 623.14C60.0942 623.137 60.1416 623.145 60.1911 623.142C64.5644 623.145 68.1722 626.668 68.2533 631.072C68.3378 635.525 64.7818 639.213 60.3325 639.294L60.198 639.294C60.1506 639.286 60.1012 639.29 60.0517 639.293ZM59.9739 626.392C57.3151 626.436 55.1926 628.64 55.24 631.289C55.2853 633.951 57.4797 636.063 60.1385 636.019L60.273 636.019C62.92 635.973 65.0424 633.769 64.9951 631.119C64.9498 628.458 62.7359 626.318 60.0966 626.389L59.9739 626.392Z" fill="#7D944D"/>
<path d="M73.4776 628.503C72.6115 628.496 71.8878 627.818 71.8581 626.945C71.8208 626.046 72.5158 625.289 73.414 625.253L85.7591 624.722C86.6573 624.685 87.4144 625.381 87.4517 626.28C87.4891 627.179 86.7941 627.936 85.8959 627.973L73.5508 628.504C73.5271 628.499 73.5034 628.495 73.4776 628.503Z" fill="#7D944D"/>
<path d="M73.9475 635.13C73.0814 635.124 72.3577 634.446 72.328 633.572C72.2906 632.674 72.9857 631.916 73.8839 631.88L81.0102 631.575C81.9084 631.538 82.6655 632.234 82.7029 633.133C82.7403 634.032 82.0452 634.79 81.147 634.826L74.0207 635.131C73.9949 635.139 73.9712 635.134 73.9475 635.13Z" fill="#7D944D"/>
<path fill-rule="evenodd" clip-rule="evenodd" d="M45.5879 554.056C47.7048 554.056 49.4248 555.779 49.4248 557.899V559.2C49.4248 561.32 47.7048 563.042 45.5879 563.042C43.471 563.042 41.751 561.32 41.751 559.2V557.899C41.751 555.779 43.471 554.056 45.5879 554.056Z" fill="#7D944D"/>
<path fill-rule="evenodd" clip-rule="evenodd" d="M72.7949 554.056C74.9119 554.056 76.6319 555.779 76.6319 557.899V559.199C76.6319 561.319 74.9119 563.042 72.7949 563.042C70.678 563.042 68.958 561.319 68.958 559.199V557.899C68.958 555.779 70.678 554.056 72.7949 554.056Z" fill="#7D944D"/>
<path d="M56.0644 580.11C51.6863 580.11 48.126 576.545 48.126 572.16C48.126 571.257 48.8597 570.534 49.7498 570.534C50.6519 570.534 51.3735 571.269 51.3735 572.16C51.3735 574.75 53.4784 576.858 56.0644 576.858L63.3414 576.798C65.9394 576.774 68.0323 574.714 68.1045 572.112C68.1285 571.209 68.8863 570.51 69.7763 570.534C70.6784 570.558 71.3761 571.305 71.352 572.209C71.2317 576.569 67.7196 580.014 63.3654 580.062L56.0644 580.11Z" fill="#7D944D"/>
</svg>
