<svg width="248" height="248" viewBox="63 183 248 248" fill="none" xmlns="http://www.w3.org/2000/svg">
<rect x="63" y="183" width="248" height="248" rx="124" fill="#E8DDD9"/>
<path d="M196.154 286.998C195.178 281.137 199.119 275.597 204.98 274.621C210.84 273.644 216.385 277.605 217.369 283.453L219.275 294.808C221.458 307.808 233.632 316.677 246.672 314.759C260.098 312.79 269.651 300.72 268.488 287.211L262.261 214.647C261.752 208.733 266.142 203.533 272.056 203.024C277.97 202.514 283.182 206.912 283.692 212.826L289.918 285.389C292.049 310.228 274.471 332.423 249.794 336.036C225.167 339.645 202.17 322.896 198.048 298.345L196.154 286.998Z" fill="#926247"/>
<path d="M275.531 313.305C275.412 313.511 275.274 313.722 275.119 313.907C274.463 314.707 273.778 315.474 273.087 316.222C271.407 318.013 268.583 318.095 266.792 316.414C265 314.734 264.919 311.91 266.599 310.119C267.155 309.519 267.706 308.901 268.24 308.256C269.808 306.352 272.612 306.081 274.505 307.642C276.2 309.041 276.6 311.452 275.531 313.305ZM283.192 298.609C282.199 300.329 280.127 301.232 278.132 300.661C275.772 299.993 274.385 297.529 275.053 295.169C275.282 294.381 275.474 293.572 275.636 292.761C276.138 290.354 278.498 288.81 280.905 289.312C283.312 289.813 284.856 292.174 284.355 294.581C284.144 295.59 283.902 296.596 283.623 297.582C283.519 297.958 283.374 298.294 283.192 298.609ZM260.081 324.877C259.613 325.689 258.89 326.353 257.963 326.755C257.018 327.162 256.05 327.524 255.077 327.866C252.755 328.673 250.21 327.43 249.423 325.102C248.616 322.779 249.852 320.247 252.187 319.447C252.967 319.187 253.743 318.877 254.508 318.559C256.771 317.605 259.389 318.664 260.343 320.927C260.891 322.244 260.759 323.702 260.081 324.877ZM283.987 279.303C283.309 280.478 282.105 281.333 280.654 281.496C278.212 281.782 275.998 280.051 275.7 277.603L275.37 274.845C275.085 272.403 276.815 270.189 279.264 269.891C281.706 269.605 283.92 271.336 284.218 273.784L284.548 276.542C284.663 277.545 284.449 278.504 283.987 279.303ZM281.671 259.961C280.993 261.135 279.789 261.99 278.338 262.154C275.896 262.44 273.682 260.709 273.384 258.26L273.054 255.502C272.768 253.061 274.499 250.846 276.948 250.548C279.39 250.263 281.604 251.993 281.902 254.442L282.231 257.2C282.347 258.203 282.132 259.161 281.671 259.961ZM241.034 327.493C240.146 329.031 238.386 329.953 236.518 329.666C235.481 329.503 234.446 329.309 233.421 329.072C231.029 328.515 229.545 326.108 230.114 323.724C230.678 321.32 233.078 319.848 235.47 320.405C236.248 320.596 237.047 320.75 237.835 320.867C240.269 321.238 241.938 323.494 241.579 325.934C241.494 326.499 241.307 327.021 241.034 327.493ZM279.355 240.618C278.676 241.793 277.472 242.648 276.021 242.811C273.58 243.097 271.365 241.367 271.067 238.918L270.738 236.16C270.452 233.718 272.183 231.504 274.632 231.206C277.073 230.92 279.288 232.651 279.586 235.1L279.915 237.857C280.049 238.855 279.823 239.807 279.355 240.618ZM223.636 319.338C223.489 319.592 223.311 319.844 223.103 320.064C221.477 321.902 218.654 322.065 216.816 320.438C216.036 319.746 215.266 319.011 214.548 318.241C212.851 316.454 212.919 313.651 214.694 311.947C216.481 310.249 219.296 310.324 220.988 312.093C221.542 312.671 222.123 313.232 222.717 313.769C224.341 315.207 224.671 317.545 223.636 319.338ZM213.526 303.005C212.96 303.986 212.011 304.762 210.827 305.079C208.451 305.726 206.005 304.314 205.37 301.945C205.175 301.219 205 300.488 204.851 299.74L204.689 298.984C204.188 296.58 205.734 294.21 208.151 293.716C210.555 293.215 212.925 294.761 213.419 297.178L213.58 297.933C213.703 298.504 213.837 299.082 213.985 299.636C214.298 300.802 214.1 302.012 213.526 303.005ZM209.514 283.943C208.899 285.008 207.854 285.81 206.554 286.077C204.149 286.578 201.787 285.02 201.286 282.615L200.729 279.888C200.228 277.483 201.786 275.121 204.191 274.62C206.595 274.119 208.958 275.677 209.459 278.081L210.028 280.816C210.255 281.932 210.046 283.022 209.514 283.943Z" fill="#AC836C"/>
<path d="M269.817 283.022C269.558 283.47 269.093 283.799 268.533 283.847C267.613 283.93 266.801 283.267 266.706 282.34L260.706 219.564C260.624 218.645 261.287 217.832 262.213 217.737C263.133 217.655 263.945 218.318 264.04 219.244L270.033 282.032C270.068 282.391 269.985 282.731 269.817 283.022Z" fill="#4B3425"/>
<path fill-rule="evenodd" clip-rule="evenodd" d="M246.461 199.487L244.805 183.756C244.339 179.417 247.493 175.521 251.836 175.074C251.956 175.062 252.076 175.051 252.195 175.039C256.892 174.764 261.042 178.064 261.823 182.697L264.282 197.261C264.82 200.414 267.694 202.622 270.889 202.319C273.964 202.028 276.228 199.281 275.936 196.206C275.938 196.175 275.933 196.156 275.935 196.125L274.236 180.692C273.721 176.018 277.094 171.797 281.78 171.289C281.881 171.282 281.988 171.264 282.089 171.257C287.01 170.901 291.323 174.506 291.838 179.405L293.434 194.569C294.805 207.52 285.406 219.13 272.454 220.501L272.435 220.506C259.46 221.864 247.838 212.458 246.461 199.487Z" fill="#BDA193"/>
<path d="M265.368 197.646C265.13 198.058 264.73 198.36 264.223 198.455C263.317 198.626 262.438 198.022 262.286 197.11L259.607 182.451C259.436 181.545 260.04 180.667 260.952 180.515C261.858 180.344 262.736 180.948 262.888 181.859L265.567 196.518C265.644 196.917 265.557 197.319 265.368 197.646Z" fill="#4B3425"/>
<path fill-rule="evenodd" clip-rule="evenodd" d="M208.53 221.468L202.279 197.876C201.803 196.1 202.866 194.268 204.656 193.792C205.719 193.512 206.852 193.764 207.677 194.477L235.157 217.972L208.53 221.468Z" fill="#AC836C"/>
<path fill-rule="evenodd" clip-rule="evenodd" d="M150.046 276.945L190.112 269.156C195.538 268.107 200.797 271.645 201.859 277.085L207.761 307.418L148.018 319.025L142.117 288.692C141.068 283.266 144.606 278.008 150.046 276.945Z" fill="#AC836C"/>
<path fill-rule="evenodd" clip-rule="evenodd" d="M162.115 274.847L202.181 267.058C207.607 266.009 212.865 269.547 213.928 274.987L219.83 305.32L160.087 316.927L154.186 286.594C153.123 281.168 156.675 275.91 162.115 274.847Z" fill="#BDA193"/>
<path fill-rule="evenodd" clip-rule="evenodd" d="M111.393 226.488L180.603 213.034C194.49 210.335 207.929 219.397 210.628 233.284L216.474 263.351C219.173 277.238 210.111 290.677 196.224 293.376L127.014 306.829C113.127 309.528 99.6879 300.466 96.9889 286.58L91.1433 256.513C88.4583 242.626 97.5203 229.187 111.393 226.488Z" fill="#AC836C"/>
<path fill-rule="evenodd" clip-rule="evenodd" d="M139.726 220.728L208.936 207.275C222.823 204.576 236.262 213.638 238.961 227.524L244.806 257.591C247.505 271.478 238.443 284.917 224.557 287.616L155.347 301.07C141.46 303.769 128.021 294.707 125.322 280.82L119.476 250.753C116.777 236.866 125.853 223.427 139.726 220.728Z" fill="#BDA193"/>
<path d="M152.214 302.732C151.431 302.732 150.731 302.173 150.578 301.376C150.41 300.467 150.997 299.6 151.906 299.418L229.829 284.384C230.738 284.203 231.605 284.804 231.786 285.713C231.968 286.622 231.367 287.489 230.458 287.671L152.536 302.704C152.424 302.732 152.326 302.732 152.214 302.732Z" fill="#4B3425"/>
<path fill-rule="evenodd" clip-rule="evenodd" d="M154.004 234.167L208.978 223.483C218.334 221.665 227.396 227.776 229.214 237.132L230.235 242.39C232.053 251.746 225.941 260.808 216.586 262.626L161.612 273.31C152.256 275.128 143.194 269.017 141.376 259.661L140.355 254.403C138.537 245.047 144.649 235.985 154.004 234.167Z" fill="#D5C2B9"/>
<path fill-rule="evenodd" clip-rule="evenodd" d="M174.505 239.971C177.316 239.425 180.029 241.257 180.575 244.068L180.896 245.76C181.442 248.571 179.61 251.284 176.799 251.83C173.988 252.375 171.275 250.543 170.729 247.732L170.408 246.04C169.862 243.243 171.694 240.516 174.505 239.971Z" fill="#4B3425"/>
<path fill-rule="evenodd" clip-rule="evenodd" d="M204.405 233.159C207.215 232.613 209.928 234.445 210.474 237.256L210.796 238.948C211.341 241.759 209.509 244.472 206.698 245.018C203.887 245.563 201.174 243.731 200.629 240.92L200.307 239.228C199.776 236.417 201.608 233.704 204.405 233.159Z" fill="#4B3425"/>
<path d="M192.923 259.015C189.399 259.015 186.266 256.47 185.637 252.89C185.483 251.981 186.085 251.114 186.994 250.96C187.903 250.806 188.77 251.408 188.923 252.317C189.301 254.498 191.399 255.981 193.594 255.617L196.531 255.128C198.419 254.806 199.692 253.086 199.44 251.184C199.314 250.275 199.971 249.436 200.88 249.31C201.789 249.184 202.628 249.842 202.754 250.751C203.23 254.429 200.74 257.799 197.076 258.414L194.14 258.904C193.734 258.988 193.329 259.015 192.923 259.015Z" fill="#4B3425"/>
<path fill-rule="evenodd" clip-rule="evenodd" d="M89.2411 255.423L79.2001 230.768C78.5009 229.062 79.326 227.118 81.0321 226.419C82.011 226.027 83.1158 226.111 84.0108 226.656L117.7 246.934L89.2411 255.423Z" fill="#AC836C"/>
<path d="M98.7787 237.06C98.499 237.06 98.2054 236.99 97.9397 236.837L83.4656 228.488C82.6684 228.026 82.3887 227.005 82.8502 226.208C83.3117 225.411 84.3326 225.131 85.1297 225.593L99.6038 233.942C100.401 234.403 100.681 235.424 100.219 236.221C99.9255 236.753 99.3661 237.06 98.7787 237.06Z" fill="#4B3425"/>
<path fill-rule="evenodd" clip-rule="evenodd" d="M109.113 290.399C117.656 286.337 120.983 273.637 116.549 262.022C112.116 250.407 101.597 244.309 93.0549 248.372C84.5125 252.434 81.1853 265.134 85.619 276.749C90.0527 288.364 100.571 294.461 109.113 290.399Z" fill="#BDA193"/>
<path fill-rule="evenodd" clip-rule="evenodd" d="M96.1662 283.735C101.151 281.322 103.066 273.742 100.449 266.791C97.8319 259.84 91.6586 256.157 86.6736 258.57C81.6887 260.982 79.7734 268.562 82.3907 275.513C85.008 282.464 91.1813 286.147 96.1662 283.735Z" fill="#AC836C"/>
<path d="M96.1746 285.395C95.5492 285.392 94.962 285.041 94.6736 284.453C94.2727 283.629 94.622 282.63 95.446 282.229C99.6734 280.191 101.211 273.53 98.891 267.379C97.5589 263.85 95.1281 261.098 92.3933 260.004C90.6671 259.315 88.9383 259.335 87.4071 260.074C86.5832 260.475 85.5844 260.126 85.1835 259.302C84.7826 258.478 85.1319 257.479 85.9558 257.078C88.311 255.938 91.0418 255.883 93.6381 256.916C97.2891 258.374 100.344 261.769 102.023 266.216C104.933 273.939 102.647 282.479 96.9021 285.253C96.6639 285.351 96.416 285.395 96.1746 285.395Z" fill="#4B3425"/>
<path fill-rule="evenodd" clip-rule="evenodd" d="M113.345 323.847L182.597 310.393C196.484 307.708 209.909 316.77 212.622 330.643L218.468 360.696C221.167 374.569 212.105 388.022 198.232 390.721L128.98 404.174C115.093 406.859 101.668 397.797 98.955 383.925L93.1094 353.872C90.3964 339.971 99.4584 326.532 113.345 323.847C113.345 323.833 113.345 323.833 113.345 323.847Z" fill="#BDA193"/>
<path fill-rule="evenodd" clip-rule="evenodd" d="M119.317 367.633C126.575 365.074 130.35 355.075 127.749 345.299C125.148 335.524 117.149 329.692 109.891 332.252C102.633 334.811 98.857 344.81 101.458 354.585C104.059 364.346 112.045 370.192 119.317 367.633Z" fill="#AC836C"/>
<path fill-rule="evenodd" clip-rule="evenodd" d="M152.181 316.491L232.243 300.94C246.129 298.255 259.555 307.317 262.268 321.19L268.113 351.243C270.812 365.116 261.75 378.569 247.878 381.268L167.815 396.819C153.929 399.504 140.503 390.442 137.79 376.569L131.945 346.516C129.232 332.63 138.294 319.19 152.181 316.491Z" fill="#AC836C"/>
<path d="M138.853 382.527C138.07 382.527 137.371 381.982 137.217 381.185L129.805 344.307C129.623 343.398 130.211 342.517 131.12 342.335C132.029 342.153 132.91 342.741 133.091 343.65L140.503 380.527C140.685 381.436 140.098 382.317 139.189 382.499C139.077 382.513 138.965 382.527 138.853 382.527Z" fill="#4B3425"/>
<path fill-rule="evenodd" clip-rule="evenodd" d="M162.35 331.186L189.914 325.829C202.136 323.452 213.981 331.437 216.359 343.674C218.736 355.896 210.751 367.741 198.528 370.119L170.964 375.461C158.742 377.838 146.897 369.853 144.519 357.617C142.128 345.394 150.113 333.563 162.35 331.186Z" fill="#BDA193"/>
<path fill-rule="evenodd" clip-rule="evenodd" d="M168.643 330.136L196.207 324.78C208.43 322.403 220.275 330.388 222.652 342.625C225.029 354.847 217.044 366.692 204.822 369.069L177.258 374.426C165.035 376.803 153.19 368.818 150.813 356.581C148.435 344.345 156.421 332.514 168.643 330.136Z" fill="#D5C2B9"/>
<path d="M173.594 362.636C168.881 362.636 164.658 359.294 163.721 354.497C162.658 349.057 166.224 343.757 171.678 342.694L171.874 342.652C177.314 341.59 182.614 345.17 183.677 350.61C184.698 355.882 181.397 361.014 176.237 362.287L176.223 362.301L175.524 362.441C174.866 362.581 174.223 362.636 173.594 362.636ZM172.251 345.981C168.643 346.708 166.294 350.232 166.993 353.854C167.678 357.392 171.049 359.742 174.587 359.224L174.713 359.098H175.23C178.782 358.329 181.09 354.833 180.39 351.253C179.677 347.617 176.139 345.226 172.503 345.939L172.251 345.981Z" fill="#926247"/>
<path d="M189.885 345.646C189.116 345.646 188.431 345.114 188.263 344.331C188.067 343.436 188.627 342.541 189.536 342.345L205.282 338.863C206.191 338.667 207.072 339.227 207.268 340.136C207.464 341.031 206.905 341.926 205.996 342.122L190.249 345.604C190.123 345.632 189.997 345.646 189.885 345.646Z" fill="#926247"/>
<path d="M191.983 354.036C191.214 354.036 190.529 353.504 190.361 352.721C190.165 351.826 190.725 350.931 191.634 350.735L200.724 348.721C201.633 348.526 202.514 349.085 202.709 349.994C202.905 350.889 202.346 351.784 201.437 351.98L192.347 353.994C192.221 354.022 192.109 354.036 191.983 354.036Z" fill="#926247"/>
<path d="M107.695 342.46C112.282 338.684 119.051 339.327 122.827 343.914C126.602 348.501 125.945 355.283 121.372 359.059L112.492 366.387C102.325 374.778 100.731 389.756 108.912 400.09C117.331 410.733 132.56 412.97 143.678 405.209L203.406 363.534C208.273 360.136 214.971 361.339 218.37 366.205C221.768 371.072 220.565 377.785 215.699 381.183L155.97 422.857C135.525 437.122 107.513 432.996 92.0464 413.432C76.6073 393.909 79.614 365.618 98.815 349.773L107.695 342.46Z" fill="#926247"/>
<path d="M124.603 424.353C124.365 424.353 124.113 424.339 123.875 424.297C122.855 424.129 121.848 423.92 120.855 423.696C118.463 423.137 116.981 420.731 117.54 418.34C118.1 415.948 120.505 414.466 122.897 415.025C123.694 415.207 124.505 415.375 125.33 415.515C127.763 415.92 129.399 418.214 128.994 420.633C128.63 422.801 126.742 424.353 124.603 424.353ZM141.16 423.64C139.175 423.64 137.357 422.297 136.853 420.284C136.252 417.906 137.692 415.473 140.07 414.872C140.867 414.676 141.664 414.438 142.447 414.172C144.783 413.403 147.3 414.676 148.069 417.011C148.838 419.347 147.565 421.864 145.23 422.633C144.251 422.955 143.258 423.248 142.265 423.5C141.888 423.598 141.524 423.64 141.16 423.64ZM106.856 416.76C105.919 416.76 104.982 416.466 104.171 415.865C103.346 415.249 102.549 414.592 101.766 413.921C99.9058 412.312 99.71 409.488 101.332 407.642C102.94 405.782 105.751 405.586 107.611 407.208C108.227 407.753 108.884 408.271 109.541 408.774C111.499 410.257 111.891 413.054 110.408 415.011C109.541 416.144 108.213 416.76 106.856 416.76ZM158.278 414.676C156.921 414.676 155.579 414.06 154.712 412.886C153.243 410.914 153.635 408.131 155.607 406.649L157.83 404.984C159.802 403.516 162.585 403.908 164.067 405.879C165.536 407.851 165.144 410.634 163.172 412.117L160.949 413.781C160.138 414.382 159.201 414.676 158.278 414.676ZM173.871 402.999C172.514 402.999 171.172 402.383 170.304 401.209C168.836 399.237 169.228 396.454 171.2 394.971L173.423 393.307C175.395 391.839 178.178 392.23 179.66 394.202C181.129 396.174 180.737 398.957 178.765 400.439L176.542 402.104C175.731 402.705 174.794 402.999 173.871 402.999ZM95.0671 401.572C93.2911 401.572 91.6129 400.509 90.9277 398.747C90.5501 397.768 90.2005 396.775 89.8928 395.769C89.1796 393.419 90.5221 390.93 92.8715 390.231C95.2349 389.517 97.7102 390.86 98.4234 393.209C98.6472 393.979 98.9129 394.748 99.2066 395.489C100.102 397.782 98.9828 400.356 96.6893 401.265C96.1579 401.474 95.6125 401.572 95.0671 401.572ZM189.463 391.321C188.107 391.321 186.764 390.706 185.897 389.531C184.429 387.56 184.821 384.777 186.792 383.294L189.016 381.63C190.988 380.162 193.771 380.553 195.253 382.525C196.721 384.497 196.33 387.28 194.358 388.762L192.135 390.426C191.337 391.042 190.4 391.321 189.463 391.321ZM93.4309 382.427C93.1372 382.427 92.8296 382.399 92.5359 382.329C90.1305 381.84 88.5782 379.476 89.0677 377.071C89.2775 376.05 89.5292 375.015 89.8369 374.008C90.5361 371.645 92.9974 370.303 95.3608 370.988C97.7242 371.687 99.0667 374.162 98.3815 376.512C98.1577 377.281 97.9619 378.064 97.7941 378.847C97.3606 380.973 95.5006 382.427 93.4309 382.427ZM102.521 365.506C101.388 365.506 100.241 365.072 99.3744 364.205C97.6263 362.471 97.6263 359.646 99.3604 357.912C99.8918 357.381 100.437 356.863 101.011 356.36L101.584 355.842C103.416 354.206 106.241 354.36 107.877 356.206C109.513 358.038 109.359 360.863 107.513 362.499L106.94 363.017C106.507 363.408 106.073 363.814 105.667 364.219C104.814 365.072 103.668 365.506 102.521 365.506ZM117.023 352.5C115.792 352.5 114.576 351.997 113.695 351.004C112.058 349.172 112.226 346.347 114.058 344.711L116.142 342.865C117.974 341.228 120.799 341.396 122.435 343.228C124.071 345.06 123.903 347.885 122.071 349.521L119.988 351.381C119.135 352.136 118.086 352.5 117.023 352.5Z" fill="#AC836C"/>
<path d="M147.971 404.262C147.454 404.262 146.936 404.025 146.615 403.563C146.083 402.808 146.251 401.773 147.006 401.228L198.372 364.644C199.127 364.112 200.162 364.28 200.707 365.035C201.239 365.791 201.071 366.825 200.316 367.371L148.936 403.955C148.643 404.164 148.307 404.262 147.971 404.262Z" fill="#4B3425"/>
<path fill-rule="evenodd" clip-rule="evenodd" d="M208.637 342.269L221.433 332.969C224.957 330.396 229.907 331.179 232.467 334.717C232.536 334.815 232.606 334.913 232.676 335.011C235.264 338.94 234.48 344.185 230.858 347.177L219.475 356.589C217.014 358.631 216.538 362.225 218.398 364.84C220.188 367.357 223.698 367.945 226.215 366.154C226.243 366.141 226.257 366.127 226.285 366.113L238.802 356.925C242.591 354.142 247.934 354.953 250.717 358.757C250.772 358.841 250.842 358.924 250.898 359.008C253.667 363.092 252.702 368.63 248.717 371.525L236.382 380.489C225.852 388.152 211.098 385.817 203.434 375.286L203.42 375.272C195.757 364.714 198.092 349.946 208.637 342.269Z" fill="#D5C2B9"/>
<path d="M219.684 357.721C219.209 357.721 218.748 357.526 218.412 357.134C217.811 356.435 217.894 355.372 218.608 354.785L229.963 345.135C230.662 344.534 231.725 344.618 232.313 345.331C232.914 346.03 232.83 347.093 232.117 347.68L220.761 357.33C220.454 357.596 220.062 357.721 219.684 357.721Z" fill="#4B3425"/>
<path d="M53.8297 353C53.2323 353 52.6348 352.757 52.2131 352.253C51.475 351.368 51.5804 350.065 52.4766 349.336L87.7273 320.114C89.4846 318.656 90.5565 316.607 90.7673 314.35C90.9606 312.092 90.2577 309.887 88.7816 308.151C87.3055 306.415 85.232 305.356 82.9475 305.147C80.6631 304.956 78.4314 305.651 76.6741 307.109L41.4411 336.349C40.5448 337.078 39.2269 336.974 38.4889 336.088C37.7508 335.203 37.8562 333.9 38.7524 333.171L74.0031 303.949C76.6214 301.779 79.9251 300.754 83.3341 301.05C86.7432 301.345 89.8184 302.925 92.015 305.512C94.2116 308.099 95.2484 311.381 94.9496 314.732C94.6509 318.1 93.0518 321.139 90.4335 323.309L55.1828 352.514C54.7787 352.843 54.3042 353 53.8297 353Z" fill="#9BB068"/>
<path d="M107.718 176.209C106.153 174.644 105.197 172.47 105.257 170.068L105.34 165.947C105.364 164.824 106.284 163.951 107.407 163.975C108.53 163.999 109.402 164.919 109.378 166.042L109.283 170.152C109.259 171.323 109.689 172.446 110.501 173.282C111.326 174.13 112.401 174.608 113.572 174.632C113.81 174.632 114.061 174.62 114.288 174.584C118.912 173.927 123.201 177.141 123.87 181.752C123.929 182.194 123.953 182.648 123.953 183.102L123.929 184.369C123.882 187.307 126.235 189.733 129.174 189.78C129.329 189.792 129.485 189.78 129.64 189.769L129.998 189.745C132.209 189.589 134.347 190.294 136.02 191.752C137.68 193.197 138.696 195.216 138.851 197.426C138.887 197.964 138.875 198.526 138.803 199.051C138.648 200.234 138.97 201.393 139.699 202.337C140.428 203.28 141.479 203.878 142.65 204.021C142.901 204.057 143.152 204.069 143.403 204.057L147.202 203.89C148.325 203.842 149.257 204.702 149.304 205.825C149.352 206.948 148.492 207.88 147.369 207.928L143.57 208.095C143.092 208.119 142.614 208.095 142.148 208.035C139.902 207.748 137.907 206.614 136.521 204.822C135.136 203.03 134.538 200.807 134.825 198.561C134.861 198.287 134.861 198 134.849 197.725C134.682 195.384 132.651 193.615 130.297 193.771L129.939 193.795C129.676 193.819 129.401 193.83 129.126 193.819C123.953 193.735 119.832 189.47 119.915 184.297L119.927 183.019C119.927 182.78 119.915 182.553 119.879 182.326C119.533 179.9 117.287 178.228 114.862 178.574C114.408 178.646 113.942 178.658 113.488 178.658C111.23 178.622 109.199 177.69 107.718 176.209Z" fill="#FE814B"/>
<path d="M283.298 331.096C294.854 324.424 309.854 328.709 316.749 340.65C323.643 352.592 319.854 367.725 308.298 374.397C306.469 375.453 304.146 374.822 303.083 372.981C302.02 371.139 302.635 368.813 304.464 367.757C312.362 363.197 314.91 352.761 310.142 344.502C305.373 336.244 295.062 333.232 287.164 337.792C285.335 338.848 283.012 338.217 281.949 336.376C280.886 334.534 281.469 332.152 283.298 331.096Z" fill="#9BB068"/>
<path d="M244.5 435C234.857 435 227 427.143 227 417.5C227 407.857 234.857 400 244.5 400C254.143 400 262 407.857 262 417.5C262 427.143 254.143 435 244.5 435ZM244.5 406.779C238.6 406.779 233.779 411.6 233.779 417.5C233.779 423.4 238.6 428.221 244.5 428.221C250.4 428.221 255.221 423.4 255.221 417.5C255.221 411.572 250.4 406.779 244.5 406.779Z" fill="#FE814B"/>
</svg>
